<?xml version="1.0" encoding="UTF-8"?>
<svg width="10px" height="16px" viewBox="0 0 10 16" version="1.1" xmlns="http://www.w3.org/2000/svg" xmlns:xlink="http://www.w3.org/1999/xlink">
    <title>Fill 1</title>
    <g id="Page-1" stroke="none" stroke-width="1" fill="none" fill-rule="evenodd">
        <g id="Detalle-noticia" transform="translate(-52.000000, -743.000000)" fill="#292929">
            <path d="M56.5581277,752.5336 C58.2316203,754.012777 59.9067662,755.490248 61.5787235,756.971619 C62.0793188,757.415116 62.1386014,758.100044 61.7307089,758.600212 C61.331083,759.090143 60.6470897,759.137674 60.1501553,758.699052 C57.585889,756.436229 55.0223312,754.172187 52.4612534,751.905343 C51.8505957,751.365078 51.8470529,750.596057 52.4460194,750.066151 C54.9779283,747.826484 57.512081,745.589255 60.0429271,743.348491 C60.4400731,742.996886 60.8717022,742.885372 61.3495055,743.134603 C61.7801898,743.359582 61.9670126,743.745798 61.9402055,744.236339 C61.9211926,744.580143 61.7497219,744.843877 61.4987747,745.065199 C59.5920489,746.747174 57.6875669,748.431951 55.7827306,750.116363 C55.4695485,750.39326 55.1577836,750.671862 54.808229,750.982761 C55.411565,751.517663 55.9843149,752.026363 56.5581277,752.5336 Z" id="Fill-1"></path>
        </g>
    </g>
</svg>