<?xml version="1.0" encoding="UTF-8"?>
<svg width="10px" height="16px" viewBox="0 0 10 16" version="1.1" xmlns="http://www.w3.org/2000/svg" xmlns:xlink="http://www.w3.org/1999/xlink">
    <title>Fill 1 Copy</title>
    <g id="Page-1" stroke="none" stroke-width="1" fill="none" fill-rule="evenodd">
        <g id="Detalle-noticia" transform="translate(-350.000000, -743.000000)" fill="#292929">
            <path d="M354.558128,752.5336 C356.23162,754.012777 357.906766,755.490248 359.578724,756.971619 C360.079319,757.415116 360.138601,758.100044 359.730709,758.600212 C359.331083,759.090143 358.64709,759.137674 358.150155,758.699052 C355.585889,756.436229 353.022331,754.172187 350.461253,751.905343 C349.850596,751.365078 349.847053,750.596057 350.446019,750.066151 C352.977928,747.826484 355.512081,745.589255 358.042927,743.348491 C358.440073,742.996886 358.871702,742.885372 359.349505,743.134603 C359.78019,743.359582 359.967013,743.745798 359.940206,744.236339 C359.921193,744.580143 359.749722,744.843877 359.498775,745.065199 C357.592049,746.747174 355.687567,748.431951 353.782731,750.116363 C353.469549,750.39326 353.157784,750.671862 352.808229,750.982761 C353.411565,751.517663 353.984315,752.026363 354.558128,752.5336 Z" id="Fill-1-Copy" transform="translate(355.000000, 751.000000) scale(-1, 1) translate(-355.000000, -751.000000) "></path>
        </g>
    </g>
</svg>