<?xml version="1.0" encoding="UTF-8"?>
<svg width="27px" height="17px" viewBox="0 0 27 17" version="1.1" xmlns="http://www.w3.org/2000/svg" xmlns:xlink="http://www.w3.org/1999/xlink">
    <title>Fill 1</title>
    <g id="Page-1" stroke="none" stroke-width="1" fill="none" fill-rule="evenodd">
        <g id="Detalle-categoría-DK" transform="translate(-139.000000, -662.000000)" fill="#0066B3">
            <path d="M143.68624,671.972807 C143.937059,672.227375 144.18864,672.481159 144.438542,672.736823 C145.681489,674.009504 146.927489,675.279209 148.165704,676.556903 C148.777102,677.187917 148.820762,677.95021 148.299586,678.545663 C147.835656,679.07579 147.060761,679.153179 146.505541,678.718769 C146.384635,678.624305 146.27579,678.512608 146.16786,678.402322 C143.968964,676.153198 141.770527,673.903291 139.573005,671.652914 C138.808338,670.870099 138.808643,670.135221 139.576058,669.349273 C141.8006,667.071011 144.024379,664.791966 146.253349,662.51809 C146.947793,661.809844 147.815047,661.832872 148.374083,662.555688 C148.730541,663.016259 148.750539,663.684401 148.411179,664.156565 C148.30615,664.302883 148.180512,664.435101 148.054874,664.563873 C146.695906,665.957807 145.334801,667.349234 143.975071,668.742227 C143.878896,668.840608 143.787606,668.943845 143.614644,669.130737 L144.214592,669.130737 C153.336559,669.130737 155.252883,669.13293 164.374697,669.12635 C164.943503,669.12588 165.436438,669.248073 165.774424,669.750941 C166.319263,670.561015 165.823123,671.705394 164.864731,671.849988 C164.689785,671.876306 164.509495,671.874113 164.3318,671.874113 C155.235175,671.87521 153.344497,671.875053 144.247872,671.874896 L143.721047,671.874896 C143.709445,671.907481 143.697842,671.940222 143.68624,671.972807" id="Fill-1"></path>
        </g>
    </g>
</svg>