<?xml version="1.0" encoding="utf-8"?>
<!-- Generator: Adobe Illustrator 24.1.2, SVG Export Plug-In . SVG Version: 6.00 Build 0)  -->
<svg version="1.1" id="Capa_1" xmlns="http://www.w3.org/2000/svg" xmlns:xlink="http://www.w3.org/1999/xlink" x="0px" y="0px"
	 viewBox="0 0 51 51" style="enable-background:new 0 0 51 51;" xml:space="preserve">
<style type="text/css">
	.st0{filter:url(#Adobe_OpacityMaskFilter);}
	.st1{fill-rule:evenodd;clip-rule:evenodd;fill:#FFFFFF;}
	.st2{mask:url(#mask-2_1_);fill-rule:evenodd;clip-rule:evenodd;fill:#FCD501;}
	.st3{fill:none;stroke:#5B5B5F;stroke-width:1.4796;stroke-linecap:round;stroke-linejoin:round;}
	.st4{fill-rule:evenodd;clip-rule:evenodd;fill:#B4B4B4;}
	.st5{fill:none;stroke:#5B5B5F;stroke-width:1.3554;stroke-linecap:round;}
	.st6{fill-rule:evenodd;clip-rule:evenodd;fill:#5B5B5F;}
</style>
<g id="Group-20" transform="translate(9.000000, 14.000000)">
	<g id="Group-3" transform="translate(1.662500, 1.673188)">
		<g id="Clip-2">
		</g>
		<defs>
			<filter id="Adobe_OpacityMaskFilter" filterUnits="userSpaceOnUse" x="0.2" y="0.2" width="31.7" height="22.4">
				<feColorMatrix  type="matrix" values="1 0 0 0 0  0 1 0 0 0  0 0 1 0 0  0 0 0 1 0"/>
			</filter>
		</defs>
		<mask maskUnits="userSpaceOnUse" x="0.2" y="0.2" width="31.7" height="22.4" id="mask-2_1_">
			<g class="st0">
				<polygon id="path-1_1_" class="st1" points="0.2,0.2 31.9,0.2 31.9,22.6 0.2,22.6 				"/>
			</g>
		</mask>
		<path id="Fill-1" class="st2" d="M29.1,22.6c1.5,0,2.8-1.3,2.8-2.8V3c0-1.5-1.3-2.8-2.8-2.8H3C1.5,0.2,0.2,1.4,0.2,3v16.8
			c0,1.5,1.3,2.8,2.8,2.8H29.1z"/>
	</g>
	<path id="Stroke-4" class="st3" d="M28.9,22.4c1.5,0,2.8-1.3,2.8-2.8V2.8c0-1.5-1.3-2.8-2.8-2.8H2.8C1.3,0,0,1.3,0,2.8v16.8
		c0,1.5,1.3,2.8,2.8,2.8H28.9z"/>
	<path id="Fill-6" class="st4" d="M4.7,11.2h5.6c0.5,0,0.9-0.4,0.9-0.9V6.6c0-0.5-0.4-0.9-0.9-0.9H4.7C4.2,5.6,3.8,6,3.8,6.6v3.7
		C3.8,10.8,4.2,11.2,4.7,11.2"/>
	<path id="Stroke-8" class="st5" d="M4.7,11.2h5.6c0.5,0,0.9-0.4,0.9-0.9V6.6c0-0.5-0.4-0.9-0.9-0.9H4.7C4.2,5.6,3.8,6,3.8,6.6v3.7
		C3.8,10.8,4.2,11.2,4.7,11.2z"/>
	<path id="Fill-10" class="st6" d="M4.7,18.7h6.5c0.5,0,0.9-0.4,0.9-0.9c0-0.5-0.4-0.9-0.9-0.9H4.7c-0.5,0-0.9,0.4-0.9,0.9
		C3.8,18.3,4.2,18.7,4.7,18.7"/>
	<path id="Fill-12" class="st1" d="M25.3,15.5c-0.2,0.5,0,1,0.5,1.2c0.1,0,0.2,0.1,0.4,0.1c0.4,0,0.7-0.2,0.9-0.6
		c1.3-3.2,1.3-6.8,0-10c-0.2-0.5-0.7-0.7-1.2-0.5c-0.5,0.2-0.7,0.7-0.5,1.2C26.4,9.6,26.4,12.8,25.3,15.5"/>
	<path id="Fill-14" class="st1" d="M22.9,15.8c0.1,0.1,0.3,0.1,0.4,0.1c0.3,0,0.7-0.2,0.8-0.5c1.4-2.6,1.4-5.7,0-8.3
		c-0.2-0.5-0.8-0.6-1.3-0.4c-0.5,0.2-0.6,0.8-0.4,1.3c1.1,2.1,1.1,4.5,0,6.6C22.3,15,22.4,15.5,22.9,15.8"/>
	<path id="Fill-16" class="st1" d="M20,14.8c0.2,0.1,0.4,0.2,0.6,0.2c0.3,0,0.6-0.1,0.7-0.4c1.5-2,1.5-4.7,0-6.7
		C21,7.4,20.4,7.4,20,7.7C19.6,8,19.5,8.6,19.8,9c1,1.3,1,3.2,0,4.5C19.5,13.9,19.6,14.4,20,14.8"/>
	<path id="Fill-18" class="st1" d="M17.2,12.3c-0.4,0.3-0.5,0.9-0.2,1.3c0.2,0.2,0.5,0.4,0.7,0.4c0.2,0,0.4-0.1,0.6-0.2
		c0.8-0.6,1.3-1.6,1.3-2.6s-0.5-2-1.3-2.6c-0.4-0.3-1-0.2-1.3,0.2c-0.3,0.4-0.2,1,0.2,1.3c0.4,0.3,0.6,0.7,0.6,1.1
		S17.5,12.1,17.2,12.3"/>
</g>
</svg>
