<?xml version="1.0" encoding="utf-8"?>
<!-- Generator: Adobe Illustrator 24.1.2, SVG Export Plug-In . SVG Version: 6.00 Build 0)  -->
<svg version="1.1" id="Capa_1" xmlns="http://www.w3.org/2000/svg" xmlns:xlink="http://www.w3.org/1999/xlink" x="0px" y="0px"
	 viewBox="0 0 51 51" style="enable-background:new 0 0 51 51;" xml:space="preserve">
<style type="text/css">
	.st0{filter:url(#Adobe_OpacityMaskFilter);}
	.st1{fill-rule:evenodd;clip-rule:evenodd;fill:#FFFFFF;}
	.st2{mask:url(#mask-2_1_);fill-rule:evenodd;clip-rule:evenodd;fill:#FFD300;}
	.st3{fill-rule:evenodd;clip-rule:evenodd;fill:#5B5B5F;}
	.st4{filter:url(#Adobe_OpacityMaskFilter_1_);}
	.st5{mask:url(#mask-4_1_);fill-rule:evenodd;clip-rule:evenodd;fill:#5B5B5F;}
	.st6{filter:url(#Adobe_OpacityMaskFilter_2_);}
	.st7{mask:url(#mask-4_2_);fill-rule:evenodd;clip-rule:evenodd;fill:#5B5B5F;}
	.st8{filter:url(#Adobe_OpacityMaskFilter_3_);}
	.st9{mask:url(#mask-4_3_);fill-rule:evenodd;clip-rule:evenodd;fill:#FFFFFF;}
	.st10{filter:url(#Adobe_OpacityMaskFilter_4_);}
	.st11{mask:url(#mask-4_4_);fill-rule:evenodd;clip-rule:evenodd;fill:#5B5B5F;}
	.st12{filter:url(#Adobe_OpacityMaskFilter_5_);}
	.st13{mask:url(#mask-4_5_);fill-rule:evenodd;clip-rule:evenodd;fill:#FFFFFF;}
	.st14{filter:url(#Adobe_OpacityMaskFilter_6_);}
	.st15{mask:url(#mask-4_6_);fill-rule:evenodd;clip-rule:evenodd;fill:#5B5B5F;}
	.st16{filter:url(#Adobe_OpacityMaskFilter_7_);}
	.st17{mask:url(#mask-4_7_);fill-rule:evenodd;clip-rule:evenodd;fill:#5B5B5F;}
	.st18{filter:url(#Adobe_OpacityMaskFilter_8_);}
	.st19{mask:url(#mask-4_8_);fill-rule:evenodd;clip-rule:evenodd;fill:#5B5B5F;}
	.st20{filter:url(#Adobe_OpacityMaskFilter_9_);}
	.st21{mask:url(#mask-4_9_);fill-rule:evenodd;clip-rule:evenodd;fill:#5C5C60;}
</style>
<g id="Group-16" transform="translate(8.000000, 16.000000)">
	<g id="Group-3" transform="translate(2.137500, 2.673252)">
		<g id="Clip-2">
		</g>
		<defs>
			<filter id="Adobe_OpacityMaskFilter" filterUnits="userSpaceOnUse" x="0.2" y="0" width="32.1" height="17.8">
				<feColorMatrix  type="matrix" values="1 0 0 0 0  0 1 0 0 0  0 0 1 0 0  0 0 0 1 0"/>
			</filter>
		</defs>
		<mask maskUnits="userSpaceOnUse" x="0.2" y="0" width="32.1" height="17.8" id="mask-2_1_">
			<g class="st0">
				<polygon id="path-1_1_" class="st1" points="0.2,0 32.3,0 32.3,17.8 0.2,17.8 				"/>
			</g>
		</mask>
		<path id="Fill-1" class="st2" d="M0.7,0C0.4,0,0.2,0.3,0.2,0.5v16.7c0,0.3,0.2,0.5,0.5,0.5h22.4h4.4h4.2c0.3,0,0.5-0.2,0.5-0.5
			V0.5C32.3,0.3,32,0,31.8,0H0.7z"/>
	</g>
	<polygon id="Fill-4" class="st3" points="3.3,8.3 3.3,9.3 23.4,9.3 26.9,9.3 29.4,9.3 29.4,8.3 26.9,8.3 23.4,8.3 	"/>
	<g id="Clip-7">
	</g>
	<defs>
		<filter id="Adobe_OpacityMaskFilter_1_" filterUnits="userSpaceOnUse" x="3.3" y="12.5" width="7" height="1">
			<feColorMatrix  type="matrix" values="1 0 0 0 0  0 1 0 0 0  0 0 1 0 0  0 0 0 1 0"/>
		</filter>
	</defs>
	<mask maskUnits="userSpaceOnUse" x="3.3" y="12.5" width="7" height="1" id="mask-4_1_">
		<g class="st4">
			<polygon id="path-3_1_" class="st1" points="0,20.5 34.4,20.5 34.4,0 0,0 			"/>
		</g>
	</mask>
	<polygon id="Fill-6" class="st5" points="3.3,13.5 10.4,13.5 10.4,12.5 3.3,12.5 	"/>
	<defs>
		<filter id="Adobe_OpacityMaskFilter_2_" filterUnits="userSpaceOnUse" x="24.1" y="15.9" width="5" height="1">
			<feColorMatrix  type="matrix" values="1 0 0 0 0  0 1 0 0 0  0 0 1 0 0  0 0 0 1 0"/>
		</filter>
	</defs>
	<mask maskUnits="userSpaceOnUse" x="24.1" y="15.9" width="5" height="1" id="mask-4_2_">
		<g class="st6">
			<polygon id="path-3_2_" class="st1" points="0,20.5 34.4,20.5 34.4,0 0,0 			"/>
		</g>
	</mask>
	<polygon id="Fill-8" class="st7" points="24.1,16.9 29.2,16.9 29.2,15.9 24.1,15.9 	"/>
	<defs>
		<filter id="Adobe_OpacityMaskFilter_3_" filterUnits="userSpaceOnUse" x="4.1" y="2.9" width="9.6" height="3.1">
			<feColorMatrix  type="matrix" values="1 0 0 0 0  0 1 0 0 0  0 0 1 0 0  0 0 0 1 0"/>
		</filter>
	</defs>
	<mask maskUnits="userSpaceOnUse" x="4.1" y="2.9" width="9.6" height="3.1" id="mask-4_3_">
		<g class="st8">
			<polygon id="path-3_3_" class="st1" points="0,20.5 34.4,20.5 34.4,0 0,0 			"/>
		</g>
	</mask>
	<polygon id="Fill-9" class="st9" points="4.1,6 13.6,6 13.6,2.9 4.1,2.9 	"/>
	<defs>
		<filter id="Adobe_OpacityMaskFilter_4_" filterUnits="userSpaceOnUse" x="3.4" y="2.2" width="10.9" height="4.4">
			<feColorMatrix  type="matrix" values="1 0 0 0 0  0 1 0 0 0  0 0 1 0 0  0 0 0 1 0"/>
		</filter>
	</defs>
	<mask maskUnits="userSpaceOnUse" x="3.4" y="2.2" width="10.9" height="4.4" id="mask-4_4_">
		<g class="st10">
			<polygon id="path-3_4_" class="st1" points="0,20.5 34.4,20.5 34.4,0 0,0 			"/>
		</g>
	</mask>
	<path id="Fill-10" class="st11" d="M4.7,5.3h8.2V3.6H4.7V5.3z M3.4,6.7h10.9V2.2H3.4V6.7z"/>
	<defs>
		<filter id="Adobe_OpacityMaskFilter_5_" filterUnits="userSpaceOnUse" x="19.2" y="11.7" width="9.6" height="3.1">
			<feColorMatrix  type="matrix" values="1 0 0 0 0  0 1 0 0 0  0 0 1 0 0  0 0 0 1 0"/>
		</filter>
	</defs>
	<mask maskUnits="userSpaceOnUse" x="19.2" y="11.7" width="9.6" height="3.1" id="mask-4_5_">
		<g class="st12">
			<polygon id="path-3_5_" class="st1" points="0,20.5 34.4,20.5 34.4,0 0,0 			"/>
		</g>
	</mask>
	<polygon id="Fill-11" class="st13" points="19.2,14.7 28.7,14.7 28.7,11.7 19.2,11.7 	"/>
	<defs>
		<filter id="Adobe_OpacityMaskFilter_6_" filterUnits="userSpaceOnUse" x="18.5" y="11" width="10.9" height="4.4">
			<feColorMatrix  type="matrix" values="1 0 0 0 0  0 1 0 0 0  0 0 1 0 0  0 0 0 1 0"/>
		</filter>
	</defs>
	<mask maskUnits="userSpaceOnUse" x="18.5" y="11" width="10.9" height="4.4" id="mask-4_6_">
		<g class="st14">
			<polygon id="path-3_6_" class="st1" points="0,20.5 34.4,20.5 34.4,0 0,0 			"/>
		</g>
	</mask>
	<path id="Fill-12" class="st15" d="M19.9,14.1h8.2v-1.7h-8.2V14.1z M18.5,15.4h10.9V11H18.5V15.4z"/>
	<defs>
		<filter id="Adobe_OpacityMaskFilter_7_" filterUnits="userSpaceOnUse" x="0" y="0" width="33.4" height="19.1">
			<feColorMatrix  type="matrix" values="1 0 0 0 0  0 1 0 0 0  0 0 1 0 0  0 0 0 1 0"/>
		</filter>
	</defs>
	<mask maskUnits="userSpaceOnUse" x="0" y="0" width="33.4" height="19.1" id="mask-4_7_">
		<g class="st16">
			<polygon id="path-3_7_" class="st1" points="0,20.5 34.4,20.5 34.4,0 0,0 			"/>
		</g>
	</mask>
	<path id="Fill-13" class="st17" d="M32.2,19.1H1.2c-0.6,0-1.2-0.5-1.2-1.2v-4.1c0-0.4,0.3-0.7,0.7-0.7s0.7,0.3,0.7,0.7v3.9h30.7
		V1.4H1.4v3.9c0,0.4-0.3,0.7-0.7,0.7S0,5.6,0,5.3V1.2C0,0.5,0.5,0,1.2,0h31.1c0.6,0,1.2,0.5,1.2,1.2v16.7
		C33.4,18.6,32.9,19.1,32.2,19.1"/>
	<defs>
		<filter id="Adobe_OpacityMaskFilter_8_" filterUnits="userSpaceOnUse" x="0" y="4.6" width="1.4" height="5">
			<feColorMatrix  type="matrix" values="1 0 0 0 0  0 1 0 0 0  0 0 1 0 0  0 0 0 1 0"/>
		</filter>
	</defs>
	<mask maskUnits="userSpaceOnUse" x="0" y="4.6" width="1.4" height="5" id="mask-4_8_">
		<g class="st18">
			<polygon id="path-3_8_" class="st1" points="0,20.5 34.4,20.5 34.4,0 0,0 			"/>
		</g>
	</mask>
	<path id="Fill-14" class="st19" d="M0.7,9.5C0.3,9.5,0,9.2,0,8.9V5.3c0-0.4,0.3-0.7,0.7-0.7s0.7,0.3,0.7,0.7v3.6
		C1.4,9.2,1.1,9.5,0.7,9.5"/>
	<defs>
		<filter id="Adobe_OpacityMaskFilter_9_" filterUnits="userSpaceOnUse" x="0" y="10.4" width="1.4" height="1.4">
			<feColorMatrix  type="matrix" values="1 0 0 0 0  0 1 0 0 0  0 0 1 0 0  0 0 0 1 0"/>
		</filter>
	</defs>
	<mask maskUnits="userSpaceOnUse" x="0" y="10.4" width="1.4" height="1.4" id="mask-4_9_">
		<g class="st20">
			<polygon id="path-3_9_" class="st1" points="0,20.5 34.4,20.5 34.4,0 0,0 			"/>
		</g>
	</mask>
	<path id="Fill-15" class="st21" d="M0.7,11.8c0,0-0.1,0-0.1,0c0,0-0.1,0-0.1,0c0,0-0.1,0-0.1-0.1c0,0-0.1-0.1-0.1-0.1
		c0,0-0.1-0.1-0.1-0.1c0,0,0-0.1-0.1-0.1c0,0,0-0.1,0-0.1c0,0,0-0.1,0-0.1c0-0.2,0.1-0.4,0.2-0.5c0,0,0.1-0.1,0.1-0.1
		c0,0,0.1,0,0.1-0.1c0,0,0.1,0,0.1,0c0.1,0,0.2,0,0.3,0c0,0,0.1,0,0.1,0c0,0,0.1,0,0.1,0.1c0,0,0.1,0.1,0.1,0.1
		c0.1,0.1,0.2,0.3,0.2,0.5c0,0,0,0.1,0,0.1c0,0,0,0.1,0,0.1c0,0,0,0.1-0.1,0.1c0,0-0.1,0.1-0.1,0.1c0,0-0.1,0.1-0.1,0.1
		c0,0-0.1,0-0.1,0.1c0,0-0.1,0-0.1,0C0.8,11.8,0.7,11.8,0.7,11.8"/>
</g>
</svg>
