<?xml version="1.0" encoding="utf-8"?>
<!-- Generator: Adobe Illustrator 24.1.2, SVG Export Plug-In . SVG Version: 6.00 Build 0)  -->
<svg version="1.1" id="Capa_1" xmlns="http://www.w3.org/2000/svg" xmlns:xlink="http://www.w3.org/1999/xlink" x="0px" y="0px"
	 viewBox="0 0 51 51" style="enable-background:new 0 0 51 51;" xml:space="preserve">
<style type="text/css">
	.st0{filter:url(#Adobe_OpacityMaskFilter);}
	.st1{fill-rule:evenodd;clip-rule:evenodd;fill:#FFFFFF;}
	.st2{mask:url(#mask-2_1_);fill-rule:evenodd;clip-rule:evenodd;fill:#FCD501;}
	.st3{filter:url(#Adobe_OpacityMaskFilter_1_);}
	.st4{mask:url(#mask-4_1_);fill-rule:evenodd;clip-rule:evenodd;fill:#5B5B5F;}
	.st5{filter:url(#Adobe_OpacityMaskFilter_2_);}
	.st6{mask:url(#mask-4_2_);fill-rule:evenodd;clip-rule:evenodd;fill:#5B5B5F;}
	.st7{filter:url(#Adobe_OpacityMaskFilter_3_);}
	.st8{mask:url(#mask-4_3_);fill-rule:evenodd;clip-rule:evenodd;fill:#FFFFFF;}
	.st9{filter:url(#Adobe_OpacityMaskFilter_4_);}
	.st10{mask:url(#mask-4_4_);fill:none;stroke:#5B5B5F;stroke-width:1.3554;stroke-linecap:round;}
	.st11{filter:url(#Adobe_OpacityMaskFilter_5_);}
	.st12{mask:url(#mask-4_5_);fill-rule:evenodd;clip-rule:evenodd;fill:#B4B4B4;}
	.st13{filter:url(#Adobe_OpacityMaskFilter_6_);}
	.st14{mask:url(#mask-4_6_);fill:none;stroke:#5B5B5F;stroke-width:1.3554;stroke-linecap:round;}
	.st15{filter:url(#Adobe_OpacityMaskFilter_7_);}
	.st16{mask:url(#mask-4_7_);fill:none;stroke:#5B5B5F;stroke-width:1.3554;stroke-linecap:round;}
</style>
<g id="Group-12" transform="translate(8.000000, 12.000000)">
	<g id="Group-3" transform="translate(2.612500, 2.323700)">
		<g id="Clip-2">
		</g>
		<defs>
			<filter id="Adobe_OpacityMaskFilter" filterUnits="userSpaceOnUse" x="0" y="0" width="32.3" height="24.2">
				<feColorMatrix  type="matrix" values="1 0 0 0 0  0 1 0 0 0  0 0 1 0 0  0 0 0 1 0"/>
			</filter>
		</defs>
		<mask maskUnits="userSpaceOnUse" x="0" y="0" width="32.3" height="24.2" id="mask-2_1_">
			<g class="st0">
				<polygon id="path-1_1_" class="st1" points="0,0 32.3,0 32.3,24.2 0,24.2 				"/>
			</g>
		</mask>
		<path id="Fill-1" class="st2" d="M28.3,0H4.1C1.8,0,0,1.8,0,4v16.1c0,2.2,1.8,4,4,4h24.2c2.2,0,4-1.8,4-4V4
			C32.3,1.8,30.5,0,28.3,0"/>
	</g>
	<g id="Clip-5">
	</g>
	<defs>
		<filter id="Adobe_OpacityMaskFilter_1_" filterUnits="userSpaceOnUse" x="12" y="15.6" width="12.1" height="2">
			<feColorMatrix  type="matrix" values="1 0 0 0 0  0 1 0 0 0  0 0 1 0 0  0 0 0 1 0"/>
		</filter>
	</defs>
	<mask maskUnits="userSpaceOnUse" x="12" y="15.6" width="12.1" height="2" id="mask-4_1_">
		<g class="st3">
			<polygon id="path-3_1_" class="st1" points="0,26.5 34.9,26.5 34.9,0 0,0 			"/>
		</g>
	</mask>
	<polygon id="Fill-4" class="st4" points="12,17.6 24.1,17.6 24.1,15.6 12,15.6 	"/>
	<defs>
		<filter id="Adobe_OpacityMaskFilter_2_" filterUnits="userSpaceOnUse" x="12" y="18.7" width="4" height="2">
			<feColorMatrix  type="matrix" values="1 0 0 0 0  0 1 0 0 0  0 0 1 0 0  0 0 0 1 0"/>
		</filter>
	</defs>
	<mask maskUnits="userSpaceOnUse" x="12" y="18.7" width="4" height="2" id="mask-4_2_">
		<g class="st5">
			<polygon id="path-3_2_" class="st1" points="0,26.5 34.9,26.5 34.9,0 0,0 			"/>
		</g>
	</mask>
	<polygon id="Fill-6" class="st6" points="12,20.7 16,20.7 16,18.7 12,18.7 	"/>
	<defs>
		<filter id="Adobe_OpacityMaskFilter_3_" filterUnits="userSpaceOnUse" x="4.5" y="15.4" width="5.7" height="5.7">
			<feColorMatrix  type="matrix" values="1 0 0 0 0  0 1 0 0 0  0 0 1 0 0  0 0 0 1 0"/>
		</filter>
	</defs>
	<mask maskUnits="userSpaceOnUse" x="4.5" y="15.4" width="5.7" height="5.7" id="mask-4_3_">
		<g class="st7">
			<polygon id="path-3_3_" class="st1" points="0,26.5 34.9,26.5 34.9,0 0,0 			"/>
		</g>
	</mask>
	<path id="Fill-7" class="st8" d="M5.2,21.1h4.3c0.4,0,0.7-0.3,0.7-0.7v-4.3c0-0.4-0.3-0.7-0.7-0.7H5.2c-0.4,0-0.7,0.3-0.7,0.7v4.3
		C4.5,20.8,4.8,21.1,5.2,21.1"/>
	<defs>
		<filter id="Adobe_OpacityMaskFilter_4_" filterUnits="userSpaceOnUse" x="3.8" y="14.7" width="7.1" height="7.1">
			<feColorMatrix  type="matrix" values="1 0 0 0 0  0 1 0 0 0  0 0 1 0 0  0 0 0 1 0"/>
		</filter>
	</defs>
	<mask maskUnits="userSpaceOnUse" x="3.8" y="14.7" width="7.1" height="7.1" id="mask-4_4_">
		<g class="st9">
			<polygon id="path-3_4_" class="st1" points="0,26.5 34.9,26.5 34.9,0 0,0 			"/>
		</g>
	</mask>
	<path id="Stroke-8" class="st10" d="M5.2,21.1h4.3c0.4,0,0.7-0.3,0.7-0.7v-4.3c0-0.4-0.3-0.7-0.7-0.7H5.2c-0.4,0-0.7,0.3-0.7,0.7
		v4.3C4.5,20.8,4.8,21.1,5.2,21.1z"/>
	<defs>
		<filter id="Adobe_OpacityMaskFilter_5_" filterUnits="userSpaceOnUse" x="0.7" y="6.7" width="32.3" height="4">
			<feColorMatrix  type="matrix" values="1 0 0 0 0  0 1 0 0 0  0 0 1 0 0  0 0 0 1 0"/>
		</filter>
	</defs>
	<mask maskUnits="userSpaceOnUse" x="0.7" y="6.7" width="32.3" height="4" id="mask-4_5_">
		<g class="st11">
			<polygon id="path-3_5_" class="st1" points="0,26.5 34.9,26.5 34.9,0 0,0 			"/>
		</g>
	</mask>
	<polygon id="Fill-9" class="st12" points="0.7,10.8 33,10.8 33,6.7 0.7,6.7 	"/>
	<defs>
		<filter id="Adobe_OpacityMaskFilter_6_" filterUnits="userSpaceOnUse" x="0" y="6.1" width="33.6" height="5.4">
			<feColorMatrix  type="matrix" values="1 0 0 0 0  0 1 0 0 0  0 0 1 0 0  0 0 0 1 0"/>
		</filter>
	</defs>
	<mask maskUnits="userSpaceOnUse" x="0" y="6.1" width="33.6" height="5.4" id="mask-4_6_">
		<g class="st13">
			<polygon id="path-3_6_" class="st1" points="0,26.5 34.9,26.5 34.9,0 0,0 			"/>
		</g>
	</mask>
	<polygon id="Stroke-10" class="st14" points="0.7,10.8 33,10.8 33,6.7 0.7,6.7 	"/>
	<defs>
		<filter id="Adobe_OpacityMaskFilter_7_" filterUnits="userSpaceOnUse" x="0" y="0" width="33.6" height="25.6">
			<feColorMatrix  type="matrix" values="1 0 0 0 0  0 1 0 0 0  0 0 1 0 0  0 0 0 1 0"/>
		</filter>
	</defs>
	<mask maskUnits="userSpaceOnUse" x="0" y="0" width="33.6" height="25.6" id="mask-4_7_">
		<g class="st15">
			<polygon id="path-3_7_" class="st1" points="0,26.5 34.9,26.5 34.9,0 0,0 			"/>
		</g>
	</mask>
	<path id="Stroke-11" class="st16" d="M28.9,0.7H4.7c-2.2,0-4,1.8-4,4v16.1c0,2.2,1.8,4,4,4h24.2c2.2,0,4-1.8,4-4V4.7
		C33,2.5,31.1,0.7,28.9,0.7z"/>
</g>
</svg>
