<?xml version="1.0" encoding="UTF-8"?>
<svg width="29px" height="28px" viewBox="0 0 29 28" version="1.1" xmlns="http://www.w3.org/2000/svg" xmlns:xlink="http://www.w3.org/1999/xlink">
    <title>Fill 144</title>
    <g id="Symbols" stroke="none" stroke-width="1" fill="none" fill-rule="evenodd">
        <g id="FOOTER-DESKTOP" transform="translate(-973.000000, -76.000000)" fill="#FFFFFF">
            <g id="Group-13" transform="translate(234.000000, 60.000000)">
                <g id="Group-12" transform="translate(739.000000, 16.000000)">
                    <path d="M17.5242767,10.2907451 L17.3746844,10.2907451 C17.0148258,10.2907451 16.6581055,10.2816525 16.2982469,10.2907451 C15.8044874,10.3079199 15.4425366,10.4928017 15.4247529,11.0817969 C15.4111536,11.5152084 15.4080153,12.5143785 15.4080153,12.5143785 L17.0671308,12.5143785 L17.4625568,12.5143785 C17.3715461,13.2044019 17.2826275,13.8671478 17.1926629,14.534945 L15.4205685,14.534945 L15.4205685,19.5863612 L13.2499098,19.5863612 L13.2499098,14.5238319 L11.472585,14.5238319 L11.472585,12.5093271 L13.2593247,12.5093271 L13.2593247,12.3577846 C13.2593247,11.9536713 13.2488637,11.549558 13.2593247,11.1454447 C13.2603708,10.8868122 13.2812928,10.6281797 13.3231369,10.372578 C13.4131015,9.76741837 13.7530842,9.22388598 14.2656735,8.86624572 C14.7228194,8.55911961 15.2688839,8.39747429 15.8254094,8.40151542 C16.1946829,8.39343316 16.5576798,8.41060797 16.9321838,8.42576222 C17.1330351,8.43586506 17.3328403,8.46213242 17.5253228,8.48031752 L17.5242767,10.2907451 Z M14.4989539,0 C6.49314624,-0.00101028324 0.00209220114,6.26779722 0,13.9994949 C0.00104610057,21.7322028 6.49210014,28 14.4989539,28 C22.5068538,28.0010103 28.9989539,21.7332131 29,14.0005051 L29,13.9994949 C28.9989539,6.26779722 22.5078999,-0.00101028324 14.5010461,0 L14.4989539,0 Z" id="Fill-144"></path>
                </g>
            </g>
        </g>
    </g>
</svg>