<?xml version="1.0" encoding="utf-8"?>
<!-- Generator: Adobe Illustrator 24.1.2, SVG Export Plug-In . SVG Version: 6.00 Build 0)  -->
<svg version="1.1" id="Capa_1" xmlns="http://www.w3.org/2000/svg" xmlns:xlink="http://www.w3.org/1999/xlink" x="0px" y="0px"
	 viewBox="0 0 51 51" style="enable-background:new 0 0 51 51;" xml:space="preserve">
<style type="text/css">
	.st0{filter:url(#Adobe_OpacityMaskFilter);}
	.st1{fill-rule:evenodd;clip-rule:evenodd;fill:#FFFFFF;}
	.st2{mask:url(#mask-2_1_);fill-rule:evenodd;clip-rule:evenodd;fill:#FFD300;}
	.st3{fill:none;stroke:#5B5B5F;stroke-width:1.3554;}
	.st4{fill:none;stroke:#5B5B5F;stroke-width:1.3554;stroke-linecap:round;}
	.st5{fill:none;stroke:#5C5C60;stroke-width:1.3554;stroke-linecap:round;}
</style>
<g id="Group-14" transform="translate(10.000000, 13.000000)">
	<g id="Group-3" transform="translate(1.425000, 1.832550)">
		<g id="Clip-2">
		</g>
		<defs>
			<filter id="Adobe_OpacityMaskFilter" filterUnits="userSpaceOnUse" x="0" y="0.1" width="31.6" height="25.1">
				<feColorMatrix  type="matrix" values="1 0 0 0 0  0 1 0 0 0  0 0 1 0 0  0 0 0 1 0"/>
			</filter>
		</defs>
		<mask maskUnits="userSpaceOnUse" x="0" y="0.1" width="31.6" height="25.1" id="mask-2_1_">
			<g class="st0">
				<polygon id="path-1_1_" class="st1" points="0,0.1 31.6,0.1 31.6,25.2 0,25.2 				"/>
			</g>
		</mask>
		<path id="Fill-1" class="st2" d="M19.1,0.1c-1.1,0-2.2,0.2-3.3,0.4v0c-1-0.3-2.1-0.4-3.3-0.4C5.6,0.1,0,5.7,0,12.6
			c0,6.9,5.6,12.5,12.5,12.5c1.1,0,2.2-0.1,3.3-0.4v0c1,0.3,2.1,0.4,3.3,0.4c6.9,0,12.5-5.6,12.5-12.5C31.6,5.7,26,0.1,19.1,0.1"/>
	</g>
	<path id="Stroke-4" class="st3" d="M31.7,12.8c0,6.9-5.6,12.5-12.5,12.5c-6.9,0-12.5-5.6-12.5-12.5c0-6.9,5.6-12.5,12.5-12.5
		C26.1,0.2,31.7,5.8,31.7,12.8z"/>
	<path id="Fill-6" class="st1" d="M19.9,13.8v2.9c1-0.1,1.6-0.6,1.6-1.4C21.5,14.6,21.2,14.2,19.9,13.8 M18.7,11.6V8.8
		c-1,0.1-1.5,0.6-1.5,1.3C17.1,10.8,17.4,11.2,18.7,11.6 M19.3,6.2c0.4,0,0.7,0.3,0.7,0.7v0.4c0.9,0.1,1.7,0.4,2.5,0.9
		C22.7,8.2,23,8.5,23,8.8c0,0.5-0.4,0.9-0.9,0.9c-0.2,0-0.3,0-0.5-0.1C21,9.2,20.5,9,19.9,8.9v3.1c2.4,0.6,3.5,1.6,3.5,3.3
		c0,1.8-1.4,2.9-3.4,3.1v1c0,0.4-0.3,0.7-0.7,0.7c-0.4,0-0.7-0.3-0.7-0.7v-1c-1.2-0.1-2.3-0.6-3.3-1.2c-0.3-0.2-0.4-0.4-0.4-0.8
		c0-0.5,0.4-0.9,0.9-0.9c0.2,0,0.4,0.1,0.5,0.2c0.8,0.5,1.5,0.9,2.4,1.1v-3.1c-2.3-0.6-3.4-1.5-3.4-3.3c0-1.7,1.4-2.9,3.4-3.1V6.8
		C18.6,6.5,18.9,6.2,19.3,6.2"/>
	<path id="Stroke-8" class="st4" d="M1.2,17.6c-0.6-1.5-1-3.2-1-4.9c0-6.9,5.6-12.5,12.5-12.5c1.1,0,2.2,0.1,3.3,0.4"/>
	<path id="Stroke-10" class="st4" d="M16,24.9c-1,0.3-2.1,0.4-3.3,0.4c-3.6,0-6.8-1.5-9.1-3.9"/>
	<line id="Stroke-12" class="st5" x1="2" y1="19.7" x2="2" y2="19.7"/>
</g>
</svg>
