<?xml version="1.0" encoding="utf-8"?>
<!-- Generator: Adobe Illustrator 24.1.2, SVG Export Plug-In . SVG Version: 6.00 Build 0)  -->
<svg version="1.1" id="Capa_1" xmlns="http://www.w3.org/2000/svg" xmlns:xlink="http://www.w3.org/1999/xlink" x="0px" y="0px"
	 viewBox="0 0 51 51" style="enable-background:new 0 0 51 51;" xml:space="preserve">
<style type="text/css">
	.st0{filter:url(#Adobe_OpacityMaskFilter);}
	.st1{fill-rule:evenodd;clip-rule:evenodd;fill:#FFFFFF;}
	.st2{mask:url(#mask-2_1_);fill-rule:evenodd;clip-rule:evenodd;fill:#FFD300;}
	.st3{fill:none;stroke:#5B5B5F;stroke-width:1.5575;stroke-linecap:round;stroke-linejoin:round;}
</style>
<g id="Group-20" transform="translate(9.000000, 9.000000)">
	<g id="Group-3" transform="translate(11.500000, 9.359250)">
		<g id="Clip-2">
		</g>
		<defs>
			<filter id="Adobe_OpacityMaskFilter" filterUnits="userSpaceOnUse" x="0.2" y="0.2" width="15.1" height="24.4">
				<feColorMatrix  type="matrix" values="1 0 0 0 0  0 1 0 0 0  0 0 1 0 0  0 0 0 1 0"/>
			</filter>
		</defs>
		<mask maskUnits="userSpaceOnUse" x="0.2" y="0.2" width="15.1" height="24.4" id="mask-2_1_">
			<g class="st0">
				<polygon id="path-1_1_" class="st1" points="0.2,0.2 15.3,0.2 15.3,24.5 0.2,24.5 				"/>
			</g>
		</mask>
		<path id="Fill-1" class="st2" d="M7.7,0.2c-5.6,0-7.5,3.6-7.5,6.7v10.9c0,3.1,2,6.7,7.5,6.7s7.5-3.6,7.5-6.7V6.9
			C15.3,3.8,13.3,0.2,7.7,0.2"/>
	</g>
	<line id="Stroke-4" class="st3" x1="11.8" y1="31.2" x2="11.8" y2="31.2"/>
	<path id="Stroke-6" class="st3" d="M17.9,13.5c-0.7,0-1.3,0.6-1.3,1.3v2.4c0,0.7,0.6,1.3,1.3,1.3c0.7,0,1.3-0.6,1.3-1.3v-2.4
		C19.2,14.1,18.7,13.5,17.9,13.5"/>
	<path id="Stroke-8" class="st3" d="M17.9,9.1c-5.6,0-7.6,3.6-7.6,6.8v10.9c0,0.8,0.1,1.6,0.4,2.4 M13.6,32.6c1.1,0.6,2.5,1,4.3,1
		c5.6,0,7.6-3.6,7.6-6.8V15.9c0-3.1-2-6.8-7.6-6.8"/>
	<path id="Stroke-10" class="st3" d="M18.4,8.6V5.2c0-2.8-2.3-5.2-5.1-5.2"/>
	<path id="Stroke-12" class="st3" d="M13.3,0c-2.9,0-5.2,2.3-5.2,5.1v14.3c0,2.3-1.9,4.1-4.1,4c-2.2,0-4-1.9-4-4.1v-1.8"/>
	<line id="Stroke-14" class="st3" x1="17.9" y1="11.2" x2="17.9" y2="12.8"/>
	<line id="Stroke-16" class="st3" x1="17.9" y1="18.5" x2="17.9" y2="21.1"/>
	<line id="Stroke-18" class="st3" x1="12.9" y1="21.3" x2="22.9" y2="21.3"/>
</g>
</svg>
