<?xml version="1.0" encoding="UTF-8"?>
<svg width="17px" height="17px" viewBox="0 0 17 17" version="1.1" xmlns="http://www.w3.org/2000/svg" xmlns:xlink="http://www.w3.org/1999/xlink">
    <title>search</title>
    <g id="Page-1" stroke="none" stroke-width="1" fill="none" fill-rule="evenodd">
        <g id="Home-Copy-2" transform="translate(-348.000000, -529.000000)" fill="#292929" fill-rule="nonzero">
            <g id="Group-12" transform="translate(36.000000, 514.000000)">
                <g id="search" transform="translate(312.000000, 15.000000)">
                    <path d="M11.8434594,10.0877745 C13.9249397,7.20618145 13.2287924,3.21602068 10.2895591,1.17584692 C7.35032572,-0.864326836 3.28035034,-0.182319013 1.19936721,2.69976162 C-0.881615911,5.58135478 -0.185965836,9.57102796 2.75376473,11.6112017 C4.85165422,13.0673545 7.625304,13.1794788 9.83805783,11.8983374 L14.6459493,16.5836683 C15.1650765,17.1194272 16.0287963,17.1408771 16.5752718,16.6319305 C17.1217475,16.1234714 17.1436264,15.2766896 16.6249968,14.7409308 C16.6085875,14.7238684 16.5926756,14.7082685 16.5752718,14.692181 L11.8434594,10.0877745 Z M6.51743531,10.5245717 C4.19478956,10.5250591 2.3117111,8.68037154 2.31021923,6.40327432 C2.30972211,4.12617709 4.19130879,2.28002697 6.51445176,2.27905165 C8.83411395,2.27807698 10.716198,4.11983966 10.7206795,6.39401185 C10.7246512,8.67159654 8.84405904,10.5206716 6.52041873,10.5245717 C6.5194243,10.5245717 6.51892696,10.5245717 6.51743531,10.5245717 Z" id="Shape"></path>
                </g>
            </g>
        </g>
    </g>
</svg>