<?xml version="1.0" encoding="utf-8"?>
<!-- Generator: Adobe Illustrator 24.1.2, SVG Export Plug-In . SVG Version: 6.00 Build 0)  -->
<svg version="1.1" id="Capa_1" xmlns="http://www.w3.org/2000/svg" xmlns:xlink="http://www.w3.org/1999/xlink" x="0px" y="0px"
	 viewBox="0 0 51 51" style="enable-background:new 0 0 51 51;" xml:space="preserve">
<style type="text/css">
	.st0{fill-rule:evenodd;clip-rule:evenodd;fill:#B4B4B4;}
	.st1{fill-rule:evenodd;clip-rule:evenodd;fill:#FCD501;}
	.st2{fill:none;stroke:#5B5B5F;stroke-width:1.4267;stroke-linecap:round;}
	.st3{fill:none;stroke:#5B5B5F;stroke-width:1.5665;stroke-linecap:round;}
	.st4{fill:none;stroke:#FFFFFF;stroke-width:1.5665;stroke-linecap:round;}
</style>
<g id="Group-17" transform="translate(15.000000, 7.000000)">
	<path id="Fill-1" class="st0" d="M9.3,13.6V7.9c0-0.1,0.1-0.2,0.2-0.2h4.1c0.1,0,0.2,0.1,0.2,0.2v6.9"/>
	<path id="Fill-3" class="st1" d="M22.2,25.9c0,5.7-4.6,10.3-10.3,10.3c-5.7,0-10.3-4.6-10.3-10.3c0-5.7,4.6-10.3,10.3-10.3
		C17.6,15.5,22.2,20.2,22.2,25.9"/>
	<line id="Stroke-5" class="st2" x1="8.1" y1="12" x2="8.1" y2="12"/>
	<path id="Stroke-7" class="st3" d="M20.7,24.1c0,5.7-4.6,10.3-10.3,10.3C4.7,34.4,0,29.8,0,24.1c0-5.7,4.6-10.3,10.3-10.3
		C16.1,13.8,20.7,18.4,20.7,24.1z"/>
	<path id="Stroke-9" class="st4" d="M4.6,24.1c0-3.2,2.6-5.7,5.7-5.7"/>
	<path id="Stroke-11" class="st3" d="M8.1,10.1V7.2c0-0.1,0.1-0.2,0.2-0.2h4.1c0.1,0,0.2,0.1,0.2,0.2V14"/>
	<line id="Stroke-13" class="st3" x1="10.4" y1="6.9" x2="10.4" y2="2.3"/>
	<path id="Stroke-15" class="st3" d="M10.4,2.3c0-1.3,1-2.3,2.3-2.3"/>
</g>
</svg>
