<?xml version="1.0" encoding="UTF-8"?>
<svg width="29px" height="28px" viewBox="0 0 29 28" version="1.1" xmlns="http://www.w3.org/2000/svg" xmlns:xlink="http://www.w3.org/1999/xlink">
    <title>Fill 142</title>
    <g id="Symbols" stroke="none" stroke-width="1" fill="none" fill-rule="evenodd">
        <g id="FOOTER-DESKTOP" transform="translate(-1042.000000, -76.000000)" fill="#FFFFFF">
            <g id="Group-13" transform="translate(234.000000, 60.000000)">
                <g id="Group-12" transform="translate(739.000000, 16.000000)">
                    <path d="M89.4488655,10.6493956 C89.1768695,10.9706657 88.863028,11.2585964 88.5157101,11.5040953 C88.4874644,11.5192495 88.4707262,11.5505683 88.4717723,11.5818871 C88.4864182,11.9486199 88.4707262,12.3153527 88.4257422,12.6810752 C88.3274052,13.4458596 88.1024855,14.1904384 87.7635367,14.8875338 C87.418311,15.6088761 86.9485949,16.268591 86.3774034,16.8414216 C85.4254176,17.8001804 84.196205,18.4619159 82.849825,18.7397438 C82.3801089,18.836731 81.9020237,18.8922966 81.4218463,18.9034097 C79.9718986,18.9519033 78.5418275,18.5821396 77.312615,17.8375609 C77.297969,17.8284683 77.282277,17.8193758 77.2540312,17.8011907 C78.1254644,17.8981779 79.0084052,17.780985 79.8202085,17.459715 C80.2574943,17.2859462 80.6675805,17.0545914 81.0400058,16.7727224 C79.9467912,16.7474653 78.9895747,16.0584521 78.6527182,15.0542306 C79.0167743,15.1219195 79.3933841,15.1108064 79.7522095,15.0229118 C79.7647632,15.0188706 79.7773168,15.0138192 79.7888244,15.0067472 C79.0941885,14.8663179 78.4905667,14.4551326 78.1212799,13.8701786 C77.8670683,13.4761681 77.7373471,13.0205304 77.7457162,12.5568104 C78.0961726,12.7427025 78.4863822,12.8467617 78.886007,12.8598954 C78.3535226,12.5042757 77.9769128,11.9678153 77.8325457,11.3565939 C77.6798095,10.7453725 77.7781465,10.097781 78.1055878,9.5542486 C79.415353,11.0969511 81.3371091,12.0365145 83.4000938,12.1436045 C83.3854479,12.0435865 83.3666174,11.9587227 83.3582483,11.8718384 C83.280834,11.3060797 83.4126475,10.7332491 83.7338119,10.2543749 C84.1114678,9.65123579 84.7496122,9.24005051 85.4714476,9.13599134 C86.2937123,8.98848999 87.137946,9.24813278 87.720645,9.82803536 C87.7530753,9.86642612 87.8064283,9.88057009 87.8555968,9.86743641 C88.3797121,9.75731553 88.8829047,9.57041313 89.3473901,9.31178062 L89.3829588,9.29561609 L89.399697,9.29561609 C89.2061614,9.85531301 88.8169979,10.333177 88.2991595,10.6453545 C88.7918906,10.5907992 89.2741604,10.4665344 89.7281844,10.2745806 C89.732369,10.2776114 89.7355074,10.2806423 89.7386458,10.2846834 C89.6455395,10.4018762 89.5503409,10.5271514 89.4488655,10.6493956 L89.4488655,10.6493956 Z M83.4994769,0 C75.4923343,-0.00101028324 69.0010461,6.26577666 69,13.9974743 L69,13.9984846 C69,21.7322028 75.4912882,28 83.4994769,28 C91.5066195,28.0010103 97.9989539,21.7332131 98,13.9994949 L98,13.9984846 C97.9989539,6.26678694 91.5076657,-0.00101028324 83.5005231,0 L83.4994769,0 Z" id="Fill-142"></path>
                </g>
            </g>
        </g>
    </g>
</svg>